<svg width="108" height="29" viewBox="0 0 108 29" fill="none" xmlns="http://www.w3.org/2000/svg">
<path fill-rule="evenodd" clip-rule="evenodd" d="M6.19432 0.0944563C3.99625 0.973519 1.58974 3.44758 0.831788 6.55602C-0.134604 10.4891 3.87308 12.1476 4.20469 11.6038C4.58366 10.9695 3.48463 10.752 3.25724 8.70383C2.97301 6.07571 4.25206 3.12133 5.86271 1.83446C6.16589 1.58977 6.14694 1.92508 6.14694 2.54133L6.0901 15.6457C6.0901 18.4551 5.96693 19.3341 5.74902 20.2132C5.53111 21.1013 5.18055 21.6995 5.43636 21.9351C5.73954 22.1888 7.02807 21.5726 7.76707 20.5757C8.61145 19.3438 9.05037 17.898 9.02717 16.4251C9.09349 14.5582 9.08402 11.5948 9.09349 9.90914C9.09349 8.36852 9.12191 3.82821 9.06507 1.10039C9.04612 0.429769 7.10386 -0.268044 6.19432 0.103519V0.0944563ZM84.0078 13.217C83.9776 14.3926 83.6937 15.5496 83.1741 16.6154C82.3688 18.1741 80.6823 18.6545 79.9622 16.416C79.5833 15.2016 79.5548 13.1626 79.8391 11.4588C80.1233 9.73696 80.9192 8.42289 82.2361 8.54071C83.5436 8.65852 84.1499 10.2626 84.0078 13.217ZM62.0745 22.2613C62.0556 24.681 61.6576 26.8016 60.8049 27.427C59.5827 28.297 57.9626 27.6354 58.2942 25.8682C58.5879 24.3095 59.9996 22.7145 62.084 20.757L62.0745 22.2613ZM61.7429 13.1988C61.6875 14.3771 61.4048 15.5354 60.9092 16.6154C60.1038 18.1741 58.4079 18.6545 57.6973 16.416C57.2236 14.8845 57.3373 12.9088 57.5742 11.6582C57.8868 10.0451 58.6353 8.54071 59.9712 8.54071C61.2787 8.54071 61.9229 9.90008 61.7429 13.1988ZM49.0377 13.1807C49.0137 14.3707 48.7331 15.543 48.2134 16.6245C47.3797 18.1651 45.7216 18.6545 44.9921 16.416C44.471 14.812 44.651 12.6098 44.8689 11.4316C45.1911 9.66446 46.0059 8.42289 47.266 8.53164C48.5734 8.65852 49.1988 10.2535 49.0377 13.1807ZM107.258 14.821C106.945 14.821 106.794 15.1382 106.68 15.6638C106.263 17.4945 105.827 17.9113 105.259 17.9113C104.634 17.9113 104.065 17.0051 103.914 15.1926C103.8 13.7607 103.819 11.1326 103.97 8.51352C103.999 7.97883 103.838 7.45321 102.331 6.92758C101.687 6.70102 100.74 6.36571 100.275 7.45321C99.3372 9.52242 98.6751 11.6964 98.3047 13.9238C98.3047 13.9782 98.229 13.9873 98.21 13.8695C98.1437 13.081 97.9637 11.6401 97.9447 8.62227C97.9447 8.03321 97.8121 7.53477 97.1299 7.12696C96.6846 6.85508 95.3487 6.39289 94.856 6.94571C94.4486 7.39883 93.9654 8.64039 93.4633 10.0995L92.7622 12.0932L92.7717 7.67071C92.7717 7.21758 92.4495 7.06352 92.3453 7.03633C91.7895 6.87233 91.2183 6.76004 90.6399 6.70102C90.1852 6.70102 90.0715 6.94571 90.0715 7.30821C90.0715 7.35352 89.9957 11.5223 89.9957 14.4404V14.8573C89.7399 16.1985 88.9156 18.0201 88.0155 18.0201C87.1154 18.0201 86.6891 17.2588 86.6891 13.7788C86.6891 11.7488 86.7554 10.8698 86.7838 9.40164C86.8028 8.54977 86.8407 7.90633 86.8407 7.76133C86.8312 7.30821 86.0164 7.08164 85.6374 6.99102C85.2584 6.90946 84.9174 6.87321 84.6616 6.89133C84.2826 6.90946 84.0268 7.13602 84.0268 7.45321V7.95164C83.6179 7.33303 83.0091 6.85893 82.293 6.60133C80.9286 6.21164 79.5075 6.55602 78.4369 7.98789C77.5127 9.25233 76.9688 10.7349 76.8641 12.2745C76.7125 13.6338 76.7694 15.0023 77.0252 16.1713C76.7125 17.4763 76.1156 18.0201 75.4714 18.0201C74.5334 18.0201 73.8607 16.552 73.9365 14.0326C73.9933 12.3651 74.3344 11.196 74.7134 9.51039C74.8745 8.78539 74.7513 8.42289 74.4197 8.06039C74.1165 7.72508 73.4723 7.55289 72.5343 7.76133C71.8711 7.90633 70.9236 8.06946 70.0709 8.18727C70.0709 8.18727 70.1183 7.99696 70.1657 7.64352C70.3836 5.80383 68.2897 5.94883 67.6171 6.53789C67.2191 6.89133 66.9538 7.29914 66.8402 8.05133C66.6791 9.22946 67.6929 9.78227 67.6929 9.78227C67.0418 12.1346 65.9504 14.3545 64.4715 16.3345V15.7001C64.4621 12.6551 64.5 10.2626 64.5189 9.40164C64.5379 8.54977 64.5758 7.92446 64.5758 7.77039C64.5758 7.44414 64.3673 7.31727 63.9505 7.16321C63.5715 7.01821 63.1357 6.92758 62.6809 6.89133C62.1124 6.84602 61.7619 7.13602 61.7713 7.48039V7.95164C61.3605 7.33105 60.7481 6.85665 60.028 6.60133C58.6637 6.21164 57.2426 6.55602 56.1719 7.98789C55.2809 9.26499 54.7401 10.736 54.5992 12.2654C54.4571 13.6882 54.476 14.8935 54.6845 15.9266C54.4665 16.9507 53.8412 18.011 53.1401 18.011C52.2401 18.011 51.719 17.2588 51.719 13.7788C51.719 11.7488 51.7853 10.8698 51.8137 9.40164C51.8327 8.54977 51.8706 7.90633 51.8706 7.76133C51.8706 7.30821 51.0463 7.08164 50.6673 6.99102C50.2694 6.90039 49.9188 6.87321 49.663 6.90039C49.3125 6.91852 49.0661 7.21758 49.0661 7.44414V7.95164C48.6553 7.33105 48.0429 6.85665 47.3228 6.60133C45.9585 6.21164 44.5468 6.56508 43.4667 7.98789C42.7562 8.92133 42.1877 9.95446 41.894 12.2473C41.8144 12.8605 41.7764 13.4781 41.7803 14.096C41.496 15.7363 40.2549 17.6304 39.2411 17.6304C38.6442 17.6304 38.0758 16.5338 38.0758 14.1866C38.0758 11.0601 38.2842 6.61039 38.3126 6.18446L39.8475 6.15727C40.4918 6.15727 41.0697 6.16633 41.9224 6.12102C42.3487 6.10289 42.7561 4.63477 42.3203 4.45352C42.1214 4.37196 40.7097 4.29946 40.1412 4.29039C39.6675 4.28133 38.36 4.19071 38.36 4.19071C38.36 4.19071 38.4832 1.23633 38.5116 0.928206C38.5306 0.656331 38.18 0.529456 37.9716 0.447894C37.5039 0.267853 37.0182 0.134236 36.522 0.0491437C35.8019 -0.0867938 35.4798 0.0491435 35.4135 0.629144C35.3187 1.50821 35.2714 4.09102 35.2714 4.09102C34.7408 4.09102 32.9312 3.99133 32.4101 3.99133C31.9174 3.99133 31.3868 6.00321 32.069 6.03039L35.1008 6.11196L35.0724 12.0298V12.4557C34.5702 14.9298 32.8269 16.262 32.8269 16.262C33.2059 14.6307 32.429 13.4073 31.0552 12.3651C30.5436 11.9845 29.5393 11.2595 28.4119 10.462C28.4119 10.462 29.0656 9.84571 29.6435 8.61321C30.0509 7.74321 30.0699 6.74633 29.0656 6.52883C27.4076 6.15727 26.0338 7.31727 25.6264 8.56789C25.4674 8.97274 25.4275 9.41152 25.511 9.83653C25.5946 10.2615 25.7983 10.6565 26.1001 10.9785L26.2422 11.1507C25.8632 11.8395 25.3516 12.7638 24.9158 13.4888C23.7125 15.4826 22.7935 17.0685 22.1019 17.0685C21.5524 17.0685 21.5618 15.4645 21.5618 13.9601C21.5618 12.6641 21.6566 10.7157 21.7419 8.70383C21.7703 8.03321 21.4197 7.65258 20.8323 7.30821C20.3652 6.99913 19.8361 6.7862 19.2785 6.68289C18.6153 6.68289 16.7204 6.77352 14.9203 11.7307C14.7024 12.356 14.2571 13.4888 14.2571 13.4888L14.295 7.53477C14.295 7.38977 14.2192 7.26289 14.0391 7.17227C13.4737 6.88476 12.8499 6.71781 12.2106 6.68289C11.8695 6.68289 11.699 6.83696 11.699 7.13602L11.6326 16.4704C11.6326 17.1773 11.6516 18.002 11.7274 18.3645C11.8032 18.727 11.9169 19.017 12.0685 19.1891C12.2106 19.3704 12.3811 19.4973 12.6559 19.5516C12.9212 19.606 14.3423 19.7782 14.4181 19.2616C14.5129 18.6363 14.5129 17.9657 15.2613 15.4554C16.4172 11.5495 17.9331 9.63727 18.6532 8.96664C18.7764 8.83977 18.9185 8.83977 18.909 9.03008L18.7006 13.8513C18.5111 18.7179 19.4396 19.6151 20.7565 19.6151C21.7703 19.6151 23.2009 18.6545 24.7358 16.2257L27.2939 12.1476L28.7908 13.4707C30.0036 14.5582 30.4015 15.6095 30.1362 16.5973C29.9372 17.3495 29.1698 18.1379 27.8244 17.3766C27.4265 17.1501 27.256 16.9779 26.8675 16.7332C26.6496 16.5973 26.3275 16.552 26.1285 16.697C25.6264 17.0595 25.3327 17.5307 25.1716 18.1016C25.0105 18.6545 25.598 18.9535 26.2043 19.2073C26.7254 19.4338 27.8529 19.6332 28.5729 19.6604C31.3584 19.751 33.5944 18.3735 35.1482 14.821C35.4324 17.8841 36.6167 19.6241 38.6727 19.6241C40.0465 19.6241 41.4297 17.9204 42.0361 16.2529C42.2066 16.9326 42.4624 17.5216 42.794 18.0291C44.3857 20.4307 47.4649 19.9051 49.0093 17.866C49.483 17.2407 49.5588 17.0141 49.5588 17.0141C49.605 17.7003 49.9153 18.3457 50.4296 18.826C50.944 19.3063 51.626 19.5874 52.3443 19.6151C53.3865 19.6151 54.4571 19.1438 55.215 17.5216C55.3003 17.7029 55.4045 17.866 55.4993 18.0291C57.091 20.4307 60.1702 19.9051 61.7145 17.866L61.904 17.6123L61.9513 18.881L60.5302 20.1226C58.1426 22.207 56.3235 23.7929 56.1909 25.6416C56.0204 27.9979 58.0195 28.8679 59.5354 28.9857C60.2936 29.0218 61.0481 28.8636 61.721 28.5274C62.3939 28.1913 62.9608 27.6893 63.363 27.0735C64.102 26.0313 64.5947 23.7838 64.5568 21.5635L64.5 18.3373C66.7694 15.827 68.5128 12.9226 69.6351 9.78227C69.6351 9.78227 70.5162 9.79133 71.4542 9.73696C71.7574 9.71883 71.8427 9.77321 71.7858 9.98164C71.7195 10.2354 70.6015 14.3679 71.6247 17.1229C72.3259 19.0079 73.8986 19.6151 74.846 19.6151C75.9356 19.6151 76.9873 18.8266 77.5463 17.6485L77.7642 18.0291C79.3559 20.4307 82.4256 19.9051 83.9794 17.866C84.33 17.4129 84.5289 17.0141 84.5289 17.0141C84.87 19.0079 86.4901 19.6241 87.4186 19.6241C88.385 19.6241 89.3135 19.2435 90.0525 17.5579C90.0809 18.301 90.1283 18.9082 90.2041 19.0985C90.2515 19.2163 90.5262 19.3704 90.7347 19.4338C91.6158 19.742 92.5159 19.597 92.8569 19.5335C93.0843 19.4882 93.2643 19.307 93.2928 18.8538C93.3591 17.6485 93.3212 15.6276 93.7002 14.1323C94.3349 11.6038 94.9318 10.6251 95.2161 10.1448C95.3771 9.87289 95.5572 9.82758 95.5666 10.1176C95.5761 10.6976 95.6045 12.4013 95.8509 14.6941C96.0404 16.3798 96.2867 17.3766 96.4667 17.6848C97.0068 18.591 97.67 18.6363 98.2005 18.6363C98.5416 18.6363 99.2617 18.5457 99.1953 17.9748C99.1669 17.6938 99.2143 15.9629 99.8585 13.4798C100.266 11.8576 100.948 10.3985 101.194 9.85477C101.289 9.66446 101.337 9.81852 101.337 9.85477C101.28 10.9604 101.166 14.6126 101.64 16.6154C102.284 19.316 104.15 19.6241 104.804 19.6241C106.197 19.6241 107.334 18.6091 107.713 15.9538C107.808 15.3195 107.665 14.821 107.258 14.821Z" fill="black"/>
</svg>
